<svg width="180" height="61" viewBox="0 0 180 61" fill="none" xmlns="http://www.w3.org/2000/svg">
<path d="M168.05 -0.741005L164.437 6.86196L161.298 13.4594L138.707 61H-0.587494V-0.741005H168.05Z" fill="black"/>
<path d="M99.1598 6.87729H101.625C102.265 6.87729 102.83 7.0781 103.32 7.47972C103.81 7.87242 104.19 8.42576 104.461 9.13975C104.732 9.84482 104.868 10.6525 104.868 11.5629C104.868 12.4732 104.732 13.2854 104.461 13.9994C104.19 14.7044 103.81 15.2578 103.32 15.6594C102.83 16.0521 102.265 16.2484 101.625 16.2484H99.1598V6.87729ZM101.59 15.3916C102.12 15.3916 102.585 15.231 102.982 14.9097C103.38 14.5795 103.689 14.1288 103.908 13.5576C104.127 12.9775 104.236 12.3126 104.236 11.5629C104.236 10.8132 104.127 10.1527 103.908 9.58154C103.689 9.00142 103.38 8.55071 102.982 8.22941C102.585 7.89919 102.12 7.73408 101.59 7.73408H99.7998V15.3916H101.59ZM107.974 16.3288C107.524 16.3288 107.092 16.2172 106.677 15.9941C106.267 15.771 105.95 15.4764 105.726 15.1105L105.976 14.3474C106.195 14.6866 106.487 14.9633 106.85 15.1774C107.213 15.3827 107.588 15.4854 107.974 15.4854C108.516 15.4854 108.923 15.3336 109.194 15.0302C109.465 14.7178 109.6 14.3162 109.6 13.8253C109.6 13.4505 109.525 13.1515 109.375 12.9284C109.231 12.7053 109.052 12.5357 108.839 12.4197C108.626 12.2947 108.329 12.1608 107.948 12.018C107.493 11.8395 107.129 11.67 106.858 11.5093C106.587 11.3397 106.354 11.0854 106.158 10.7462C105.968 10.4071 105.873 9.94746 105.873 9.36734C105.873 8.89432 105.953 8.46592 106.115 8.08215C106.276 7.68946 106.524 7.37709 106.858 7.14504C107.193 6.91299 107.608 6.79697 108.104 6.79697C108.45 6.79697 108.787 6.87283 109.116 7.02455C109.45 7.16735 109.738 7.36816 109.981 7.62698L109.764 8.41684C109.511 8.15801 109.24 7.96613 108.951 7.84118C108.663 7.70731 108.381 7.64037 108.104 7.64037C107.573 7.64037 107.173 7.80102 106.902 8.12231C106.636 8.43469 106.504 8.84077 106.504 9.34056C106.504 9.71541 106.576 10.0189 106.72 10.2509C106.87 10.474 107.055 10.6481 107.274 10.773C107.498 10.889 107.798 11.0184 108.173 11.1612C108.617 11.3308 108.974 11.5004 109.245 11.67C109.522 11.8306 109.756 12.0805 109.946 12.4197C110.136 12.7499 110.231 13.2006 110.231 13.7718C110.231 14.2448 110.148 14.6777 109.981 15.0704C109.819 15.4541 109.568 15.762 109.228 15.9941C108.888 16.2172 108.47 16.3288 107.974 16.3288ZM113.355 16.3154C112.917 16.3154 112.522 16.1637 112.171 15.8602C111.819 15.5478 111.542 15.1194 111.34 14.575C111.139 14.0306 111.038 13.4148 111.038 12.7276C111.038 12.0403 111.139 11.4245 111.34 10.8801C111.542 10.3357 111.819 9.91176 112.171 9.60831C112.522 9.30486 112.917 9.15314 113.355 9.15314C113.794 9.15314 114.189 9.30486 114.54 9.60831C114.892 9.91176 115.166 10.3357 115.362 10.8801C115.564 11.4245 115.665 12.0403 115.665 12.7276C115.665 13.4148 115.564 14.0306 115.362 14.575C115.166 15.1194 114.892 15.5478 114.54 15.8602C114.189 16.1637 113.794 16.3154 113.355 16.3154ZM113.355 15.472C113.678 15.472 113.967 15.3604 114.22 15.1373C114.48 14.9052 114.682 14.5795 114.826 14.16C114.97 13.7405 115.042 13.2631 115.042 12.7276C115.042 12.1921 114.97 11.7146 114.826 11.2951C114.682 10.8756 114.48 10.5543 114.22 10.3312C113.967 10.0992 113.678 9.98316 113.355 9.98316C113.033 9.98316 112.741 10.0992 112.482 10.3312C112.228 10.5543 112.026 10.8756 111.877 11.2951C111.732 11.7146 111.66 12.1921 111.66 12.7276C111.66 13.2631 111.732 13.7405 111.877 14.16C112.026 14.5795 112.228 14.9052 112.482 15.1373C112.741 15.3604 113.033 15.472 113.355 15.472ZM118.423 7.05133C118.158 7.05133 117.956 7.16289 117.818 7.38601C117.685 7.60913 117.619 7.93935 117.619 8.37667V9.20669H119.02V10.0099H117.636V16.2484H117.022V10.0099H116.209V9.20669H117.022V8.33651C117.022 7.69392 117.14 7.1852 117.377 6.81035C117.619 6.43551 117.959 6.24809 118.397 6.24809C118.57 6.24809 118.737 6.28825 118.899 6.36857C119.06 6.43997 119.196 6.54707 119.305 6.68987L119.098 7.3994C118.919 7.16735 118.694 7.05133 118.423 7.05133ZM122.245 15.82C122.129 15.9807 121.985 16.1056 121.812 16.1949C121.645 16.2752 121.469 16.3154 121.285 16.3154C120.858 16.3154 120.529 16.1369 120.299 15.7799C120.068 15.4229 119.953 14.9186 119.953 14.2671V10.0099H119.14V9.20669H119.953V7.66714H120.567V9.20669H121.951V10.0099H120.567V14.2136C120.567 14.633 120.633 14.9543 120.766 15.1774C120.904 15.3916 121.1 15.4987 121.354 15.4987C121.481 15.4987 121.602 15.4675 121.717 15.405C121.838 15.3426 121.942 15.2533 122.028 15.1373L122.245 15.82Z" fill="white"/>
<path d="M164.554 6.65027L143.367 51.1523C138.665 46.3763 135.688 39.3245 135.688 31.4525C135.688 17.0845 145.609 5.43311 157.843 5.43311C160.183 5.43311 162.441 5.86087 164.554 6.65027Z" fill="#0B72B9"/>
<path d="M180 31.4525C180 45.8206 170.079 57.4718 157.843 57.4718C152.313 57.4718 147.25 55.0905 143.367 51.1523L164.554 6.65027C173.511 9.9887 180 19.832 180 31.4525Z" fill="black"/>
<path d="M163.219 11.0837L163.184 46.5318L160.304 46.5276L160.327 23.4849L149.286 46.5099L146.305 46.5055L163.219 11.0837Z" fill="white"/>
</svg>
