<svg width="814" height="365" viewBox="0 0 814 365" fill="none" xmlns="http://www.w3.org/2000/svg">
<g clip-path="url(#clip0)">
<path d="M790 0L446.253 380.856H-10.7337V0H790Z" fill="black"/>
<path d="M26.534 324.3H35.369C37.663 324.3 39.6883 324.765 41.445 325.695C43.2017 326.604 44.5657 327.886 45.537 329.539C46.5083 331.172 46.994 333.042 46.994 335.15C46.994 337.258 46.5083 339.139 45.537 340.792C44.5657 342.425 43.2017 343.706 41.445 344.636C39.6883 345.545 37.663 346 35.369 346H26.534V324.3ZM35.245 344.016C37.1463 344.016 38.81 343.644 40.236 342.9C41.662 342.135 42.7677 341.092 43.553 339.769C44.3383 338.426 44.731 336.886 44.731 335.15C44.731 333.414 44.3383 331.885 43.553 330.562C42.7677 329.219 41.662 328.175 40.236 327.431C38.81 326.666 37.1463 326.284 35.245 326.284H28.828V344.016H35.245ZM58.1283 346.186C56.5163 346.186 54.9663 345.928 53.4783 345.411C52.011 344.894 50.8743 344.212 50.0683 343.365L50.9673 341.598C51.7527 342.383 52.7963 343.024 54.0983 343.52C55.4003 343.995 56.7437 344.233 58.1283 344.233C60.071 344.233 61.528 343.882 62.4993 343.179C63.4707 342.456 63.9563 341.526 63.9563 340.389C63.9563 339.521 63.6877 338.829 63.1503 338.312C62.6337 337.795 61.993 337.403 61.2283 337.134C60.4637 336.845 59.3993 336.535 58.0353 336.204C56.4027 335.791 55.1007 335.398 54.1293 335.026C53.158 334.633 52.321 334.044 51.6183 333.259C50.9363 332.474 50.5953 331.409 50.5953 330.066C50.5953 328.971 50.8847 327.979 51.4633 327.09C52.042 326.181 52.9307 325.457 54.1293 324.92C55.328 324.383 56.816 324.114 58.5933 324.114C59.8333 324.114 61.0423 324.29 62.2203 324.641C63.419 324.972 64.4523 325.437 65.3203 326.036L64.5453 327.865C63.636 327.266 62.6647 326.821 61.6313 326.532C60.598 326.222 59.5853 326.067 58.5933 326.067C56.692 326.067 55.2557 326.439 54.2843 327.183C53.3337 327.906 52.8583 328.847 52.8583 330.004C52.8583 330.872 53.1167 331.575 53.6333 332.112C54.1707 332.629 54.832 333.032 55.6173 333.321C56.4233 333.59 57.498 333.889 58.8413 334.22C60.4327 334.613 61.714 335.005 62.6853 335.398C63.6773 335.77 64.5143 336.349 65.1963 337.134C65.8783 337.899 66.2193 338.942 66.2193 340.265C66.2193 341.36 65.9197 342.363 65.3203 343.272C64.7417 344.161 63.8427 344.874 62.6233 345.411C61.404 345.928 59.9057 346.186 58.1283 346.186ZM77.4176 346.155C75.8469 346.155 74.4313 345.804 73.1706 345.101C71.9099 344.378 70.9179 343.386 70.1946 342.125C69.4713 340.864 69.1096 339.438 69.1096 337.847C69.1096 336.256 69.4713 334.83 70.1946 333.569C70.9179 332.308 71.9099 331.327 73.1706 330.624C74.4313 329.921 75.8469 329.57 77.4176 329.57C78.9883 329.57 80.4039 329.921 81.6646 330.624C82.9253 331.327 83.9069 332.308 84.6096 333.569C85.3329 334.83 85.6946 336.256 85.6946 337.847C85.6946 339.438 85.3329 340.864 84.6096 342.125C83.9069 343.386 82.9253 344.378 81.6646 345.101C80.4039 345.804 78.9883 346.155 77.4176 346.155ZM77.4176 344.202C78.5749 344.202 79.6083 343.944 80.5176 343.427C81.4476 342.89 82.1709 342.135 82.6876 341.164C83.2043 340.193 83.4626 339.087 83.4626 337.847C83.4626 336.607 83.2043 335.501 82.6876 334.53C82.1709 333.559 81.4476 332.815 80.5176 332.298C79.6083 331.761 78.5749 331.492 77.4176 331.492C76.2603 331.492 75.2166 331.761 74.2866 332.298C73.3773 332.815 72.6539 333.559 72.1166 334.53C71.5999 335.501 71.3416 336.607 71.3416 337.847C71.3416 339.087 71.5999 340.193 72.1166 341.164C72.6539 342.135 73.3773 342.89 74.2866 343.427C75.2166 343.944 76.2603 344.202 77.4176 344.202ZM95.5821 324.703C94.6315 324.703 93.9081 324.961 93.4121 325.478C92.9368 325.995 92.6991 326.759 92.6991 327.772V329.694H97.7211V331.554H92.7611V346H90.5601V331.554H87.6461V329.694H90.5601V327.679C90.5601 326.191 90.9838 325.013 91.8311 324.145C92.6991 323.277 93.9185 322.843 95.4891 322.843C96.1091 322.843 96.7085 322.936 97.2871 323.122C97.8658 323.287 98.3515 323.535 98.7441 323.866L98.0001 325.509C97.3595 324.972 96.5535 324.703 95.5821 324.703ZM109.28 345.008C108.867 345.38 108.35 345.669 107.73 345.876C107.131 346.062 106.5 346.155 105.839 346.155C104.31 346.155 103.132 345.742 102.305 344.915C101.478 344.088 101.065 342.921 101.065 341.412V331.554H98.151V329.694H101.065V326.129H103.266V329.694H108.226V331.554H103.266V341.288C103.266 342.259 103.504 343.003 103.979 343.52C104.475 344.016 105.178 344.264 106.087 344.264C106.542 344.264 106.976 344.192 107.389 344.047C107.823 343.902 108.195 343.696 108.505 343.427L109.28 345.008ZM134.761 344.016V346H119.54V344.419L128.561 335.584C129.698 334.468 130.462 333.507 130.855 332.701C131.268 331.874 131.475 331.048 131.475 330.221C131.475 328.94 131.031 327.948 130.142 327.245C129.274 326.522 128.024 326.16 126.391 326.16C123.849 326.16 121.875 326.966 120.47 328.578L118.889 327.214C119.736 326.222 120.811 325.457 122.113 324.92C123.436 324.383 124.924 324.114 126.577 324.114C128.788 324.114 130.535 324.641 131.816 325.695C133.118 326.728 133.769 328.154 133.769 329.973C133.769 331.089 133.521 332.164 133.025 333.197C132.529 334.23 131.589 335.419 130.204 336.762L122.826 344.016H134.761ZM146.09 346.186C144.416 346.186 142.918 345.742 141.595 344.853C140.293 343.964 139.27 342.693 138.526 341.04C137.803 339.366 137.441 337.403 137.441 335.15C137.441 332.897 137.803 330.944 138.526 329.291C139.27 327.617 140.293 326.336 141.595 325.447C142.918 324.558 144.416 324.114 146.09 324.114C147.764 324.114 149.252 324.558 150.554 325.447C151.877 326.336 152.91 327.617 153.654 329.291C154.398 330.944 154.77 332.897 154.77 335.15C154.77 337.403 154.398 339.366 153.654 341.04C152.91 342.693 151.877 343.964 150.554 344.853C149.252 345.742 147.764 346.186 146.09 346.186ZM146.09 344.14C147.351 344.14 148.456 343.789 149.407 343.086C150.378 342.383 151.133 341.36 151.67 340.017C152.207 338.674 152.476 337.051 152.476 335.15C152.476 333.249 152.207 331.626 151.67 330.283C151.133 328.94 150.378 327.917 149.407 327.214C148.456 326.511 147.351 326.16 146.09 326.16C144.829 326.16 143.713 326.511 142.742 327.214C141.791 327.917 141.047 328.94 140.51 330.283C139.973 331.626 139.704 333.249 139.704 335.15C139.704 337.051 139.973 338.674 140.51 340.017C141.047 341.36 141.791 342.383 142.742 343.086C143.713 343.789 144.829 344.14 146.09 344.14ZM172.724 344.016V346H157.503V344.419L166.524 335.584C167.661 334.468 168.425 333.507 168.818 332.701C169.231 331.874 169.438 331.048 169.438 330.221C169.438 328.94 168.994 327.948 168.105 327.245C167.237 326.522 165.987 326.16 164.354 326.16C161.812 326.16 159.838 326.966 158.433 328.578L156.852 327.214C157.699 326.222 158.774 325.457 160.076 324.92C161.399 324.383 162.887 324.114 164.54 324.114C166.751 324.114 168.498 324.641 169.779 325.695C171.081 326.728 171.732 328.154 171.732 329.973C171.732 331.089 171.484 332.164 170.988 333.197C170.492 334.23 169.552 335.419 168.167 336.762L160.789 344.016H172.724ZM181.539 324.3V346H179.307V326.284H174.192V324.3H181.539Z" fill="white"/>
</g>
<defs>
<clipPath id="clip0">
<rect width="814" height="365" fill="white"/>
</clipPath>
</defs>
</svg>
